
<svg xmlns="http://www.w3.org/2000/svg" width="1em" height="1em" viewBox="0 0 32 32">
<path fill="#242938" d="M6,2h20c2.2,0,4,1.8,4,4v20c0,2.2-1.8,4-4,4H6c-2.2,0-4-1.8-4-4V6C2,3.8,3.8,2,6,2z"/>
<g>
<path fill="#fff" d="M6,9h11.3v14C17.1,23,6.9,23,6,23V9z M7.1,12.8h5.7l-2.2,3.8v5.3H14v-5.2l2.3-4.1l0-2.4H7.1V12.8L7.1,12.8z"/>
<path fill="#fff" d="M26,17.3c-0.1,0.1-0.2,0.2-0.3,0.2c-0.5,0.5-1,1-1.5,1.5c-0.6,0.6-1.2,1.2-1.8,1.8c-0.1,0.1-0.1,0.1-0.2,0.2 H26V23h-5.6v-2.9c0.2-0.2,0.4-0.4,0.6-0.6c0.7-0.6,1.3-1.3,1.9-1.9c0.4-0.4,0.8-0.8,1.2-1.1c0,0,0,0,0,0c0,0,0,0,0,0 c-1.2,0-2.4,0-3.6,0v-2.1c0.2,0,4.7,0,5.6,0L26,17.3L26,17.3z"/>
</g>
</svg>