<svg xmlns="http://www.w3.org/2000/svg" width="1em" height="1em" viewBox="0 0 490.379 490.378" fill="#31a8ff">
<g>
<path d="M450.785,77.273H39.594C17.762,77.273,0,95.035,0,116.867v256.646c0,21.832,17.762,39.594,39.594,39.594h411.191
	c21.832,0,39.594-17.762,39.594-39.594V116.867C490.379,95.035,472.617,77.273,450.785,77.273z M156.336,346.99
	c-43.426,0-67.961-28.199-67.961-28.199l18.611-27.635c0,0,19.459,21.432,49.068,21.432c19.74,0,34.121-12.407,34.121-29.893
	c0-17.766-16.355-29.328-37.787-29.328h-14.1l-7.332-18.33l47.094-60.629v-0.564l-42.863-0.055c-3.949,0-6.205,2.258-6.205,6.205
	v13.025H95.707v-30.455c0-13.254,3.949-19.176,17.484-19.176h127.025l-64.141,80.369c27.072,4.23,51.605,24.534,51.605,58.374
	C227.682,315.406,201.739,346.99,156.336,346.99z M299.92,343.607h-43.99c-13.537,0-19.176-5.641-19.176-19.176V200.998h36.953
	l0.092,111.307h24.148c40.043,0,65.705-23.97,65.705-69.09c0-44.555-26.227-68.525-65.705-68.525h-58.73l26-31.301h34.703
	c61.758,0,102.084,36.66,102.084,99.826C402.004,306.382,361.678,343.607,299.92,343.607z"/>
</g>
</svg>